<svg id="Layer_1" enable-background="new 0 0 512 512" height="512" viewBox="0 0 512 512" width="512" xmlns="http://www.w3.org/2000/svg"><g opacity=".98"><path d="m352.4 512h-192.8c-88.004 0-159.6-71.596-159.6-159.6v-192.8c0-88.004 71.596-159.6 159.6-159.6h192.8c88.004 0 159.6 71.596 159.6 159.6v192.8c0 88.004-71.596 159.6-159.6 159.6z" fill="#ffeb4b"/><path d="m512 352.4v-192.8c0-88.004-71.596-159.6-159.6-159.6h-96.4v512h96.4c88.004 0 159.6-71.596 159.6-159.6z" fill="#ffbe00"/><path d="m3.399 126.786c-2.223 10.594-3.399 21.569-3.399 32.814v6.213l110.205 110.206c5.857 5.858 15.355 5.857 21.213 0s5.858-15.355 0-21.213z" fill="#fcf5e3"/><path d="m111.4 385.6h-107.917c2.211 10.409 5.44 20.444 9.577 30h98.34c8.284 0 15-6.716 15-15s-6.715-15-15-15z" fill="#fcf5e3"/><path d="m508.601 126.786c2.223 10.594 3.399 21.569 3.399 32.814v6.213l-110.205 110.206c-5.857 5.858-15.355 5.857-21.213 0s-5.858-15.355 0-21.213z" fill="#f8ebc6"/><path d="m400.6 385.6h107.917c-2.211 10.409-5.44 20.444-9.577 30h-98.34c-8.284 0-15-6.716-15-15s6.715-15 15-15z" fill="#f8ebc6"/><path d="m368.467 447.733h-224.934c-25.989 0-47.133-21.144-47.133-47.133v-112.467c0-25.989 21.144-47.133 47.133-47.133h224.934c25.989 0 47.133 21.144 47.133 47.133v112.467c0 25.989-21.144 47.133-47.133 47.133z" fill="#fff"/><path d="m405.556 152.09c-9.593-16.607-25.074-28.486-43.593-33.449-18.45-4.945-37.72-2.436-54.285 7.059-7.183 4.127-9.66 13.296-5.533 20.479s13.296 9.66 20.479 5.533c9.637-5.516 20.843-6.97 31.573-4.094 10.664 2.858 19.6 9.656 25.197 19.163 3.968 7.272 13.083 9.949 20.356 5.982s9.773-13.4 5.806-20.673z" fill="#0a1e28"/><path d="m106.444 152.09c9.593-16.607 25.074-28.486 43.593-33.449 18.45-4.945 37.72-2.436 54.285 7.059 7.183 4.127 9.66 13.296 5.533 20.479s-13.296 9.66-20.479 5.533c-9.637-5.516-20.843-6.97-31.573-4.094-10.664 2.858-19.6 9.656-25.197 19.163-3.968 7.272-13.083 9.949-20.356 5.982s-9.773-13.4-5.806-20.673z" fill="#1e4650"/><path d="m368.467 241h-112.467v206.733h112.467c25.989 0 47.133-21.144 47.133-47.133v-112.467c0-25.989-21.144-47.133-47.133-47.133z" fill="#fcf5e3"/></g></svg>